<?xml version="1.0" encoding="UTF-8"?>
<svg version="1.1" xmlns="http://www.w3.org/2000/svg" width="512" height="512">
<path d="M0 0 C2.64068986 0.36423308 3.75999119 0.73119013 5.5625 2.75 C7 5 7 5 8.140625 7.37890625 C10.57293674 10.80764821 13.51830054 12.34331511 17.1875 14.1875 C17.93233643 14.56914307 18.67717285 14.95078613 19.44458008 15.34399414 C45.67280555 28.49413833 74.17625257 38.50380181 103 44 C103.76731445 44.16081055 104.53462891 44.32162109 105.32519531 44.48730469 C126.70758073 48.93623516 152.8158322 49.80742447 174 44 C175.23363281 43.67128906 176.46726562 43.34257812 177.73828125 43.00390625 C192.14992701 38.67891598 212.40259132 30.3781396 220.34765625 16.67578125 C220.56292969 16.12277344 220.77820313 15.56976563 221 15 C220.22462891 14.25556641 220.22462891 14.25556641 219.43359375 13.49609375 C214.11745205 8.01349751 214.11745205 8.01349751 213.7578125 4.91015625 C214.0625 3 214.0625 3 215 0 C215.99 0 216.98 0 218 0 C219.03515625 1.57421875 219.03515625 1.57421875 220.0625 3.6875 C223.22702304 8.97730923 227.19794072 11.15250218 233 13 C236.66999532 13.57245653 240.29093683 13.98970358 243.99609375 14.25 C247 15 247 15 248.91015625 17.5625 C249.26980469 18.366875 249.62945312 19.17125 250 20 C249.1646875 19.95552734 249.1646875 19.95552734 248.3125 19.91015625 C245.3775777 20.10350417 243.60016099 20.57879399 241 22 C228.89679499 37.79425335 225.06417658 60.83395166 227.4609375 80.12109375 C230.55021139 101.28653038 240.11327853 120.12935456 253 137 C253.65097656 137.8765625 254.30195313 138.753125 254.97265625 139.65625 C265.74551604 153.53460615 278.88987679 166.22374484 293.06738281 176.58544922 C295.32634043 178.23886008 297.56506285 179.91815742 299.8046875 181.59765625 C309.91009902 189.18230067 309.91009902 189.18230067 320.57080078 195.94384766 C321.04243652 196.29237793 321.51407227 196.6409082 322 197 C322 197.66 322 198.32 322 199 C321.071875 199.598125 320.14375 200.19625 319.1875 200.8125 C315.83357552 203.11421288 314.42721781 204.2220705 313 208 C312.88405318 212.31322171 313.3010643 215.85374545 315.5625 219.5625 C316.2740625 220.2740625 316.2740625 220.2740625 317 221 C315.53657956 224.52942577 313.65907491 226.44023431 310.6875 228.8125 C309.92824219 229.43769531 309.16898437 230.06289063 308.38671875 230.70703125 C305.33798269 232.35863786 304.29264865 231.89562709 301 231 C299.35882032 230.30125992 297.74165098 229.54429675 296.1484375 228.7421875 C295.22353516 228.28448975 294.29863281 227.82679199 293.34570312 227.35522461 C292.36537109 226.86675049 291.38503906 226.37827637 290.375 225.875 C268.33832284 214.91347159 268.33832284 214.91347159 244.4375 210.625 C243.17808594 210.59664062 241.91867187 210.56828125 240.62109375 210.5390625 C236.22361568 211.09882778 234.32817706 212.07523834 231 215 C229.15502999 217.62912701 227.68111782 220.41040722 226.1875 223.25 C220.3480413 233.65311545 214.77437388 239.73431361 203.08984375 243.30859375 C183.14085759 247.77252618 155.74879657 246.40188752 137.75 236.3125 C130.77011866 231.76239673 124.695312 226.14402576 119.375 219.75 C114.91804868 214.54502888 110.2422298 211.08391152 103.375 209.9375 C91.58646593 209.40084443 81.36999557 215.00628355 71.48461914 220.73364258 C65.62582608 224.04236115 65.62582608 224.04236115 61.94140625 223.79296875 C61.30074219 223.53128906 60.66007812 223.26960937 60 223 C58.35475025 218.88328337 57.53958807 215.43857796 58 211 C61.06188543 206.98864918 64.79912148 204.31536569 68.92285156 201.45361328 C71.06200042 199.95661137 73.13644292 198.3937668 75.2109375 196.80859375 C110.2994852 170.29480253 151.41132183 153.5128325 195.96484375 159.21484375 C222.68156101 163.13440903 246.0549749 174.00829793 270 186 C270 185.01 270 184.02 270 183 C269.28046143 182.72236816 268.56092285 182.44473633 267.81958008 182.15869141 C265.09814837 181.04033355 262.50898637 179.7936012 259.88671875 178.4609375 C220.76358648 158.89458819 177.87785004 148.51816304 135.00634766 162.31640625 C106.99927053 171.85885161 82.6502529 186.95625305 60.375 206.34765625 C58 208 58 208 54 208 C51.703125 206.79296875 51.703125 206.79296875 49.25 205.1875 C44.92551495 202.47346858 40.83514975 200.61171658 36 199 C37.28979121 195.42489911 38.82395184 192.7002677 41.125 189.6875 C55.27071632 169.82455666 62.61975018 145.42586468 59.5 121.1015625 C54.11122959 91.40208924 34.52672404 68.40521644 10.28417969 51.51708984 C-3.3032575 42.06915433 -3.3032575 42.06915433 -18.71386719 37.45605469 C-28.39291013 36.5836591 -35.34854517 34.62813477 -43.125 28.5625 C-46.19227374 24.42929426 -45.51055944 19.05191404 -45.46875 14.14453125 C-45 11 -45 11 -43.66015625 9.12890625 C-40.78303374 7.17246294 -38.46125917 7.10988124 -35 7 C-33.38102776 7.42647423 -31.77653516 7.9103201 -30.1875 8.4375 C-21.70521078 11.20513515 -14.64875136 10.54699841 -6.36328125 7.2890625 C-2.9112531 5.40613805 -1.67468779 3.50886966 0 0 Z M-31 16 C-30.67 16.99 -30.34 17.98 -30 19 C-25.45072917 21.09966346 -21.1613795 22.15743909 -16.25 23.0625 C8.8733806 28.66806353 33.62976281 47.70855191 52 65 C52.74765625 65.67160156 53.4953125 66.34320313 54.265625 67.03515625 C68.3839528 80.24023558 77.60054281 98.29877295 79.3203125 117.59375 C79.80024522 132.82361503 75.35682885 145.19299099 68.609375 158.55078125 C66.78858536 161.81873715 66.78858536 161.81873715 67 165 C70.41124884 163.61579003 71.68113872 162.37977935 73.25390625 159.0703125 C73.63232666 158.28156738 74.01074707 157.49282227 74.40063477 156.68017578 C74.78405029 155.83696777 75.16746582 154.99375977 75.5625 154.125 C75.95945068 153.2572998 76.35640137 152.38959961 76.76538086 151.49560547 C83.47195454 136.50115391 86.40829939 118.46838843 80.97265625 102.46484375 C80.65167969 101.65144531 80.33070313 100.83804688 80 100 C79.64808594 99.03191406 79.29617187 98.06382812 78.93359375 97.06640625 C65.85190444 63.17490093 33.65430899 42.71971529 2.9375 26.5625 C1.94943359 26.04179932 0.96136719 25.52109863 -0.05664062 24.98461914 C-10.08598358 19.78031002 -19.85792696 17.45331387 -31 16 Z M160.125 196.875 C156.53377759 202.15620943 155.42505098 206.41052595 156.3359375 212.69140625 C157.87914602 218.05632527 161.58893895 222.33142794 166.125 225.5 C171.12344775 227.97151629 176.59403165 227.81233301 182 227 C187.53503247 225.02450321 191.31483267 221.34008876 194.15234375 216.2421875 C195.94166003 211.50915733 195.95875019 206.76377151 194.30078125 201.984375 C191.6295429 196.79969296 187.68875825 193.52605198 182.6875 190.6875 C174.03644077 188.47443834 166.21569478 190.10756135 160.125 196.875 Z " fill="#000000" transform="translate(114,126)"/>
<path d="M0 0 C17.64722169 7.60517596 28.49252101 23.18676747 37.75 39.25 C38.13067627 39.91040283 38.51135254 40.57080566 38.90356445 41.2512207 C40.87095775 44.79968434 42.45815138 48.26091451 43.71875 52.12109375 C46.24033872 60.67841834 46.24033872 60.67841834 52.578125 66.3984375 C55.16343872 67.25988182 57.78371618 67.86940883 60.4375 68.48046875 C65.97081265 70.01033591 69.68958662 72.9367994 73.125 77.5 C74.32777365 81.50924549 74.54948152 84.54310689 73.125 88.5 C73.97989014 88.76554687 74.83478027 89.03109375 75.71557617 89.3046875 C79.192126 90.52353376 82.37646503 91.98807092 85.67578125 93.625 C86.28741623 93.92799515 86.89905121 94.2309903 87.52922058 94.54316711 C89.50144272 95.52329163 91.46990818 96.5106157 93.4375 97.5 C94.11006836 97.83736176 94.78263672 98.17472351 95.47558594 98.52230835 C143.30131153 122.55847006 143.30131153 122.55847006 149.125 135.5 C149.5625 138.125 149.5625 138.125 149.125 140.5 C145.34558978 144.58176304 139.65236668 145.36486262 134.328125 145.8359375 C114.98504221 146.02707468 101.09073247 137.18213594 87.40625 123.8515625 C79.02781144 115.0638324 68.98725223 104.17817093 65.125 92.5 C63.78308594 92.55220703 63.78308594 92.55220703 62.4140625 92.60546875 C52.16683364 92.83488432 43.33250789 92.18052967 35.125 85.5 C32.28910761 82.77970105 30.36840597 80.2015819 29.0625 76.4375 C29.14587669 72.51879539 30.35253482 71.19753368 33.125 68.5 C35.375 67.1875 35.375 67.1875 37.125 66.5 C37.125 65.84 37.125 65.18 37.125 64.5 C35.09427017 62.91682232 33.06084538 61.44983941 30.9375 60 C29.64449904 59.09695956 28.35286258 58.19196269 27.0625 57.28515625 C26.40378906 56.82254395 25.74507812 56.35993164 25.06640625 55.88330078 C10.05692109 45.18866511 -4.07046067 33.24471654 -17.25 20.375 C-18.00011353 19.65703247 -18.00011353 19.65703247 -18.76538086 18.92456055 C-23.25322459 14.47764631 -26.71192488 10.06843316 -27.125 3.5625 C-27.0425 2.551875 -26.96 1.54125 -26.875 0.5 C-20.08360702 -3.93302414 -7.40646631 -2.42237538 0 0 Z " fill="#000000" transform="translate(96.875,262.5)"/>
<path d="M0 0 C2.81052699 4.74882146 3.51608721 8.76071779 3.4375 14.1875 C3.42775146 14.93999023 3.41800293 15.69248047 3.40795898 16.46777344 C2.93490342 31.43236516 -5.89005383 43.75065756 -16.48828125 53.8125 C-24.4297192 60.72883787 -32.77612717 66.87793969 -42 72 C-41.37579322 75.29836537 -40.81770533 76.21419624 -38.5 78.9375 C-36.05323478 81.9347874 -35.09733255 83.20403061 -35 87 C-36.09086431 91.47254369 -38.21773645 93.47849097 -42 96 C-50.02766829 98.75388621 -60.07019356 97.53753806 -68 95 C-68.36222656 96.20140625 -68.72445312 97.4028125 -69.09765625 98.640625 C-71.31206519 105.26446121 -74.38352472 111.48122803 -77.4375 117.75 C-77.74513275 118.38428925 -78.0527655 119.01857849 -78.36972046 119.67208862 C-97.35359441 158.72258096 -97.35359441 158.72258096 -111 171 C-114.3125 171.3125 -114.3125 171.3125 -117 171 C-121.97797047 161.69335955 -122.25011848 152.5421695 -119.375 142.4375 C-112.18799626 121.37214421 -93.39642864 104.69463314 -75 93 C-74.34 93 -73.68 93 -73 93 C-73.433125 92.443125 -73.86625 91.88625 -74.3125 91.3125 C-79.43617591 84.29116635 -79.43617591 84.29116635 -79.6875 79.75 C-78.84658979 75.16321706 -77.72210863 73.75112377 -74 71 C-69.09308385 68.92177669 -64.84724275 68.7522348 -59.625 68.875 C-58.88894531 68.88402344 -58.15289062 68.89304687 -57.39453125 68.90234375 C-55.5962112 68.92569856 -53.79806089 68.96156164 -52 69 C-51.67427002 68.38294189 -51.34854004 67.76588379 -51.01293945 67.13012695 C-41.51070253 49.19471691 -31.75767344 31.44301281 -19.625 15.125 C-18.9297522 14.18914062 -18.9297522 14.18914062 -18.22045898 13.234375 C-7.93444789 -0.20880126 -7.93444789 -0.20880126 0 0 Z " fill="#000000" transform="translate(509,257)"/>
<path d="M0 0 C8.95416745 5.67147897 17.02612238 12.75267099 24.69140625 20.0390625 C27.34667988 22.45419952 27.34667988 22.45419952 30.94140625 22.6015625 C31.97265625 22.2921875 33.00390625 21.9828125 34.06640625 21.6640625 C42.39678871 20.92390657 49.83961501 22.24875322 57.12890625 26.4140625 C59.74687282 29.45428175 59.92491884 31.70241511 60.06640625 35.6640625 C59.76876411 37.00581436 59.44320863 38.3423557 59.06640625 39.6640625 C60.53726685 40.13863892 60.53726685 40.13863892 62.0378418 40.62280273 C127.73005369 61.88074947 127.73005369 61.88074947 134.19140625 73.7265625 C134.06640625 75.6640625 134.06640625 75.6640625 132.62890625 77.7265625 C124.92368909 83.5524584 115.49315441 84.31410631 106.19140625 83.0390625 C83.44334845 78.64091048 63.47463263 61.0173666 49.06640625 43.6640625 C47.34673138 41.94438763 44.91376478 42.45529678 42.56640625 42.3515625 C35.53833496 41.8160904 30.14845149 40.05264756 24.56640625 35.7265625 C22.84009049 33.35287833 22.5563826 31.52382831 22.06640625 28.6640625 C20.87378174 28.36749756 19.68115723 28.07093262 18.45239258 27.76538086 C13.91561616 26.63486642 9.3816678 25.49332697 4.84838867 24.34887695 C2.90705595 23.86031168 0.96502328 23.37451714 -0.9777832 22.8918457 C-51.32403476 10.3738122 -51.32403476 10.3738122 -58.93359375 -0.3359375 C-58.68801238 -2.78212058 -58.27837558 -3.98336399 -56.55078125 -5.75 C-55.68839844 -6.34941406 -55.68839844 -6.34941406 -54.80859375 -6.9609375 C-54.24914062 -7.36570312 -53.6896875 -7.77046875 -53.11328125 -8.1875 C-35.8380905 -17.28948222 -15.33014295 -9.2048169 0 0 Z " fill="#000000" transform="translate(312.93359375,95.3359375)"/>
<path d="M0 0 C2.53304561 2.03160597 3.28206749 2.79531904 4.375 5.9375 C4.375 6.63875 4.375 7.34 4.375 8.0625 C-12.6446737 23.03469416 -54.61930137 18.25231053 -75.625 18.0625 C-75.315625 19.67125 -75.315625 19.67125 -75 21.3125 C-74.51121444 26.20035558 -74.51121444 26.20035558 -76.625 29.0625 C-83.89627375 34.2978171 -92.03918923 33.84061673 -100.625 33.0625 C-103.4673522 32.28769585 -105.91276483 31.23950771 -108.625 30.0625 C-113.40767576 30.50119868 -117.78091828 32.64237979 -122.1875 34.4375 C-139.05782645 41.15288922 -155.93537275 45.00965652 -173.625 39.0625 C-176.21243545 37.91305427 -178.25124162 36.6611536 -180.625 35.0625 C-181.57375 34.464375 -182.5225 33.86625 -183.5 33.25 C-186.32793394 30.33889153 -186.39602945 28.03132288 -186.625 24.0625 C-170.82507028 16.968654 -152.473381 18.92518654 -135.6105957 19.32983398 C-132.40309071 19.40212313 -129.19635958 19.44345034 -125.98828125 19.48046875 C-125.0060408 19.51254929 -124.02380035 19.54462982 -123.01179504 19.5776825 C-120.45322181 19.59684641 -118.13294467 19.57027106 -115.625 19.0625 C-113.12581703 16.78436007 -113.12581703 16.78436007 -111.625 14.0625 C-104.65907622 10.32154093 -97.40472175 10.36755966 -89.625 11.0625 C-87.61303725 11.69214302 -85.61011023 12.35272412 -83.625 13.0625 C-78.35758525 13.0625 -74.83385748 10.50107249 -70.5078125 7.80859375 C-49.97717749 -4.62662827 -21.78872813 -14.87167158 0 0 Z " fill="#000000" transform="translate(186.625,99.9375)"/>
<path d="M0 0 C1.13934293 2.27868586 2.19472953 4.49764212 3.125 6.875 C7.1517596 13.586266 13.70227677 16.77443005 20.921875 19.28515625 C24.46157816 20.10719391 27.74544663 20.18545773 31.375 20.25 C37.37652218 20.5464528 37.37652218 20.5464528 40.03515625 22.48046875 C43.24577365 26.96102395 43.58173439 31.38246144 42.7109375 36.73046875 C41.62125219 40.20907955 39.91284971 41.88156385 37 44 C28.25326911 48.06413758 18.10715516 47.69347781 9 45 C2.44363362 42.47613103 -2.45356807 39.36245817 -7 34 C-7.97551509 31.07345473 -8.16478088 29.05345004 -8.1875 26 C-8.20167969 25.13375 -8.21585937 24.2675 -8.23046875 23.375 C-8 21 -8 21 -6 18 C-5.52691406 18.45890625 -5.05382812 18.9178125 -4.56640625 19.390625 C1.30842589 24.8417363 7.17089916 28.20142278 15 30 C15 29.01 15 28.02 15 27 C14.21625 26.95875 13.4325 26.9175 12.625 26.875 C5.45263212 25.14373879 -1.27285577 21.1604407 -5.22265625 14.79296875 C-6.5823614 11.6567644 -6.55576198 9.33457187 -6 6 C-4.20437595 3.24670979 -2.94745078 1.47372539 0 0 Z " fill="#000000" transform="translate(122,337)"/>
<path d="M0 0 C2.6645814 1.01070329 3.95195872 1.9399484 5.75 4.1875 C7.34148084 7.76833188 7.48560502 10.11515987 7 14 C4.9433392 17.93448153 2.67307856 19.34481553 -1.375 20.8125 C-4.99442309 21.87738812 -8.20824961 22.29167311 -12 22 C-12 22.99 -12 23.98 -12 25 C-10.91332031 24.80083984 -10.91332031 24.80083984 -9.8046875 24.59765625 C-4.87508895 23.69718291 0.05322123 22.80218034 5 22 C4.37434186 26.95132911 3.752467 30.17753607 0.3125 33.9375 C-8.09758015 39.173965 -16.74820186 38.91387649 -26.125 36.75 C-31.16421553 35.37153072 -35.52368753 33.70267923 -40 31 C-41.42600325 26.72199024 -39.45637064 24.13234078 -37.5625 20.3125 C-37.22412109 19.61060547 -36.88574219 18.90871094 -36.53710938 18.18554688 C-35.70018652 16.45276294 -34.85122607 14.72580248 -34 13 C-32.88882812 13.10699219 -31.77765625 13.21398437 -30.6328125 13.32421875 C-16.52195021 14.56913387 -16.52195021 14.56913387 -4 8.6875 C-1.88356599 5.8435418 -0.87491071 3.42010552 0 0 Z " fill="#000000" transform="translate(477,343)"/>
<path d="M0 0 C3.91134552 3.6319637 6.45904569 7.32585667 6.75 12.78125 C6.3925843 17.24894624 5.65747378 21.01373929 2.625 24.4375 C-1.70981214 27.47386611 -6.03626496 29.14124171 -11.359375 28.81640625 C-15.83054733 27.97589517 -19.61439673 26.30195908 -22.765625 22.96484375 C-25.97751786 18.1809329 -26.26238037 13.02984504 -25.375 7.4375 C-23.24233274 2.63899867 -20.35982663 0.16371001 -15.65625 -1.93359375 C-10.11259996 -3.46189453 -5.11802773 -2.36945728 0 0 Z " fill="#000000" transform="translate(299.375,321.5625)"/>
</svg>
